<svg xmlns="http://www.w3.org/2000/svg" viewBox="0 0 512 512" width="100%" height="100%">
  <defs>
    <mask id="line-mask">
      <rect width="512" height="512" fill="white" />
      <path d="M 60 400 L 150 260 L 240 360 L 350 200 L 450 120" fill="none" stroke="black" stroke-width="48" stroke-linecap="round" stroke-linejoin="round" />
      <circle cx="60" cy="400" r="32" fill="black" />
      <circle cx="150" cy="260" r="32" fill="black" />
      <circle cx="240" cy="360" r="32" fill="black" />
      <circle cx="350" cy="200" r="32" fill="black" />
      <circle cx="450" cy="120" r="32" fill="black" />
    </mask>
  </defs>
  
  <!-- Bars -->
  <g fill="#2dd4bf" mask="url(#line-mask)">
    <rect x="36" y="220" width="48" height="240" rx="8" />
    <rect x="126" y="100" width="48" height="360" rx="8" />
    <rect x="216" y="180" width="48" height="280" rx="8" />
    <rect x="326" y="80" width="48" height="380" rx="8" />
    <rect x="426" y="160" width="48" height="300" rx="8" />
  </g>
  
  <!-- Line Foreground -->
  <path d="M 60 400 L 150 260 L 240 360 L 350 200 L 450 120" fill="none" stroke="#3b82f6" stroke-width="32" stroke-linecap="round" stroke-linejoin="round" />
  
  <!-- Dots Foreground -->
  <g fill="#3b82f6">
    <circle cx="60" cy="400" r="24" />
    <circle cx="150" cy="260" r="24" />
    <circle cx="240" cy="360" r="24" />
    <circle cx="350" cy="200" r="24" />
    <circle cx="450" cy="120" r="24" />
  </g>
</svg>
